<svg width="500" height="107" viewBox="0 0 500 107" fill="none" xmlns="http://www.w3.org/2000/svg">
<path d="M35.4004 102.855V95.0859C41.2794 100.776 48.7336 103.613 57.6914 103.613C69.3034 103.613 78.568 99.0796 85.384 90.0322C92.2313 80.9626 95.6055 68.9818 95.6055 54.1855V52.8672C95.6055 37.5019 92.3267 25.3105 85.6496 16.4078C78.9398 7.46136 69.5195 3 57.5156 3C48.1352 3 40.3449 6.23403 34.2134 12.6927L33.5503 5.66389L33.4648 4.75781H32.5547H9H8V5.75781V102.855V103.855H9H34.4004H35.4004V102.855ZM63.6191 32.4042L63.6191 32.4042L63.6238 32.4113C66.637 36.9868 68.2051 43.5901 68.2051 52.3398C68.2051 62.2023 66.6937 69.4313 63.8033 74.1649C60.9618 78.8183 56.7456 81.1348 51.0117 81.1348C47.1571 81.1348 43.9599 80.3769 41.375 78.9135C38.8578 77.4884 36.8645 75.3626 35.4004 72.4933V34.0302C36.8053 31.2544 38.7513 29.1956 41.2365 27.8134C43.7921 26.3921 46.9765 25.6543 50.8359 25.6543C56.4914 25.6543 60.7076 27.8995 63.6191 32.4042Z" fill="#FF0000" stroke="black" stroke-width="2"/>
<path d="M139.455 103.758C148.845 103.758 156.655 100.708 162.814 94.5944C163.353 97.2263 164.114 99.5181 165.108 101.456L165.387 102H165.998H191.662H192.662V101V99.5059V99.2566L192.545 99.0364C190.197 94.6191 188.941 87.9856 188.883 79.0244V37.8066C188.883 26.9079 185.338 18.3449 178.162 12.2614C171.077 6.14734 161.535 3.14453 149.65 3.14453C141.8 3.14453 134.69 4.51255 128.338 7.26853C121.99 9.96427 117.03 13.7302 113.509 18.5869C109.993 23.4358 108.221 28.7369 108.221 34.4668V35.4668H109.221H134.621H135.621V34.4668C135.621 31.1445 136.723 28.6279 138.869 26.7937C141.098 24.9389 144.213 23.9531 148.332 23.9531C153.026 23.9531 156.234 25.2225 158.203 27.5534L158.203 27.5534L158.211 27.5631C160.301 29.9747 161.395 33.2367 161.395 37.4551V41.9043L150.705 41.9043L150.701 41.9043C136.475 41.9633 125.427 44.7053 117.69 50.2661L117.687 50.2683C109.958 55.8672 106.111 63.9186 106.111 74.2812C106.111 82.7681 109.279 89.8386 115.589 95.4209L115.593 95.424C121.953 100.997 129.932 103.758 139.455 103.758ZM161.395 73.8475C159.974 76.3659 157.823 78.4157 154.897 79.9886C151.884 81.5494 148.588 82.334 144.992 82.334C141.304 82.334 138.524 81.3597 136.529 79.5223C134.525 77.6764 133.518 75.3499 133.512 72.4644L133.597 71.0175C133.985 66.9033 135.738 63.9033 138.835 61.8924C141.988 59.8449 146.636 58.7578 152.902 58.7578H161.395V73.8475Z" fill="#FFD600" stroke="black" stroke-width="2"/>
<path d="M233.795 103V95.2304C239.674 100.921 247.128 103.758 256.086 103.758C267.698 103.758 276.963 99.2241 283.779 90.1768C290.626 81.1071 294 69.1263 294 54.3301V53.0117C294 37.6464 290.721 25.4551 284.044 16.5523C277.334 7.60589 267.914 3.14453 255.91 3.14453C246.53 3.14453 238.739 6.37856 232.608 12.8372L231.945 5.80842L231.859 4.90234H230.949H207.395H206.395V5.90234V103V104H207.395H232.795H233.795V103ZM262.014 32.5487L262.014 32.5487L262.018 32.5558C265.031 37.1314 266.6 43.7346 266.6 52.4844C266.6 62.3468 265.088 69.5758 262.198 74.3094C259.356 78.9628 255.14 81.2793 249.406 81.2793C245.552 81.2793 242.354 80.5214 239.77 79.058C237.252 77.633 235.259 75.5071 233.795 72.6378V34.1747C235.2 31.399 237.146 29.3401 239.631 27.9579C242.187 26.5366 245.371 25.7988 249.23 25.7988C254.886 25.7988 259.102 28.044 262.014 32.5487Z" fill="#00DC80" stroke="black" stroke-width="2"/>
<path d="M339.758 103.758C350.187 103.758 358.617 100.444 364.948 93.7749L365.479 101.073L365.547 102H366.477H390.383H391.383V101V5.90234V4.90234H390.383H364.895H363.895V5.90234V72.9703C360.869 78.3895 355.392 81.1914 347.141 81.1914C342.808 81.1914 339.736 80.0071 337.728 77.8045C335.705 75.5843 334.605 72.1567 334.605 67.3379V5.90234V4.90234H333.605H308.205H307.205V5.90234L307.205 68.2168L307.205 68.2272C307.324 79.6772 310.084 88.5365 315.639 94.6418L315.643 94.6458C321.273 100.765 329.366 103.758 339.758 103.758Z" fill="#0075FF" stroke="black" stroke-width="2"/>
<path d="M463.761 101.456L464.039 102H464.65H490.314H491.314V101V99.5059V99.2566L491.197 99.0364C488.849 94.6191 487.594 87.9856 487.535 79.0244V37.8066C487.535 26.9079 483.99 18.3449 476.814 12.2614C469.729 6.14734 460.187 3.14453 448.303 3.14453C440.452 3.14453 433.343 4.51255 426.99 7.26853C420.642 9.96427 415.682 13.7302 412.161 18.5869C408.646 23.4358 406.873 28.7369 406.873 34.4668V35.4668H407.873H433.273H434.273V34.4668C434.273 31.1445 435.376 28.6279 437.522 26.7937C439.75 24.9389 442.865 23.9531 446.984 23.9531C451.679 23.9531 454.887 25.2225 456.855 27.5534L456.855 27.5534L456.863 27.5631C458.953 29.9747 460.047 33.2367 460.047 37.4551V41.9043L449.357 41.9043L449.353 41.9043C435.127 41.9633 424.079 44.7053 416.342 50.2661L416.339 50.2683C408.61 55.8672 404.764 63.9186 404.764 74.2812C404.764 82.7681 407.931 89.8386 414.242 95.4209L414.245 95.424C420.605 100.997 428.584 103.758 438.107 103.758C447.497 103.758 455.308 100.708 461.466 94.5944C462.006 97.2263 462.767 99.5181 463.761 101.456ZM453.549 79.9886C450.536 81.5494 447.24 82.334 443.645 82.334C439.956 82.334 437.176 81.3597 435.181 79.5223C433.177 77.6764 432.171 75.3499 432.164 72.4644L432.249 71.0175C432.637 66.9033 434.391 63.9033 437.487 61.8924C440.641 59.8449 445.288 58.7578 451.555 58.7578H460.047V73.8475C458.626 76.3659 456.475 78.4157 453.549 79.9886Z" fill="#EB00FF" stroke="black" stroke-width="2"/>
</svg>
